<svg version="1.1" xmlns="http://www.w3.org/2000/svg" xmlns:xlink="http://www.w3.org/1999/xlink" width="800" height="300" style="width: 800px; height: 300px;"><defs><clipPath id="InrOPUySBTFO"><path fill="none" stroke="none" d=" M 45 27 L 795 27 L 795 183 L 45 183 L 45 27 Z"/></clipPath><clipPath id="uweFkJCSdPre"><path fill="none" stroke="none" d=" M 45 27 L 795 27 L 795 183 L 45 183 L 45 27 Z"/></clipPath></defs><g><g transform="scale(1,1) translate(0.5,0.5)"><rect fill="#FFFFFF" stroke="none" x="0" y="0" width="800" height="300"/><rect fill="#ffffff" stroke="none" x="0" y="0" width="800" height="300"/><rect fill="#FFFFFF" stroke="none" x="45" y="27" width="750" height="156"/><rect fill="#ffffff" stroke="none" x="45" y="27" width="750" height="156"/><g><rect fill="none" stroke="#e5e5e5" x="45" y="27" width="750" height="156" stroke-linejoin="bevel" stroke-miterlimit="10"/></g><g clip-path="url(#InrOPUySBTFO)"><g><g/><g><path fill="none" stroke="#e5e5e5" paint-order="fill stroke markers" d=" M 45 176 L 795 176" stroke-linejoin="bevel" stroke-miterlimit="10"/><path fill="none" stroke="#e5e5e5" paint-order="fill stroke markers" d=" M 45 152 L 795 152" stroke-linejoin="bevel" stroke-miterlimit="10"/><path fill="none" stroke="#e5e5e5" paint-order="fill stroke markers" d=" M 45 128 L 795 128" stroke-linejoin="bevel" stroke-miterlimit="10"/><path fill="none" stroke="#e5e5e5" paint-order="fill stroke markers" d=" M 45 105 L 795 105" stroke-linejoin="bevel" stroke-miterlimit="10"/><path fill="none" stroke="#e5e5e5" paint-order="fill stroke markers" d=" M 45 81 L 795 81" stroke-linejoin="bevel" stroke-miterlimit="10"/><path fill="none" stroke="#e5e5e5" paint-order="fill stroke markers" d=" M 45 57 L 795 57" stroke-linejoin="bevel" stroke-miterlimit="10"/><path fill="none" stroke="#e5e5e5" paint-order="fill stroke markers" d=" M 45 34 L 795 34" stroke-linejoin="bevel" stroke-miterlimit="10"/></g><g><path fill="none" stroke="none"/><rect fill="#abdda4" stroke="none" x="724.9065420560748" y="38.83399209486166" width="35.04672897196269" height="137.07509881422925"/><path fill="none" stroke="white" paint-order="fill stroke markers" d=" M 724.9065420560748 38.83399209486166 L 759.9532710280375 38.83399209486166 L 759.9532710280375 175.9090909090909 L 724.9065420560748 175.9090909090909 L 724.9065420560748 38.83399209486166 Z" stroke-linejoin="bevel" stroke-miterlimit="10"/><rect fill="#abdda4" stroke="none" x="514.6261682242991" y="119.46640316205533" width="35.04672897196269" height="56.44268774703558"/><path fill="none" stroke="white" paint-order="fill stroke markers" d=" M 514.6261682242991 119.46640316205533 L 549.6728971962618 119.46640316205533 L 549.6728971962618 175.9090909090909 L 514.6261682242991 175.9090909090909 L 514.6261682242991 119.46640316205533 Z" stroke-linejoin="bevel" stroke-miterlimit="10"/><rect fill="#abdda4" stroke="none" x="444.53271028037386" y="123.498023715415" width="35.04672897196269" height="52.411067193675905"/><path fill="none" stroke="white" paint-order="fill stroke markers" d=" M 444.53271028037386 123.498023715415 L 479.57943925233656 123.498023715415 L 479.57943925233656 175.9090909090909 L 444.53271028037386 175.9090909090909 L 444.53271028037386 123.498023715415 Z" stroke-linejoin="bevel" stroke-miterlimit="10"/><rect fill="#abdda4" stroke="none" x="689.8598130841121" y="72.98418972332016" width="35.04672897196269" height="102.92490118577075"/><path fill="none" stroke="white" paint-order="fill stroke markers" d=" M 689.8598130841121 72.98418972332016 L 724.9065420560748 72.98418972332016 L 724.9065420560748 175.9090909090909 L 689.8598130841121 175.9090909090909 L 689.8598130841121 72.98418972332016 Z" stroke-linejoin="bevel" stroke-miterlimit="10"/><rect fill="#abdda4" stroke="none" x="479.57943925233656" y="121.36363636363636" width="35.04672897196258" height="54.54545454545455"/><path fill="none" stroke="white" paint-order="fill stroke markers" d=" M 479.57943925233656 121.36363636363636 L 514.6261682242991 121.36363636363636 L 514.6261682242991 175.9090909090909 L 479.57943925233656 175.9090909090909 L 479.57943925233656 121.36363636363636 Z" stroke-linejoin="bevel" stroke-miterlimit="10"/><rect fill="#abdda4" stroke="none" x="584.7196261682245" y="118.51778656126481" width="35.046728971962466" height="57.39130434782609"/><path fill="none" stroke="white" paint-order="fill stroke markers" d=" M 584.7196261682245 118.51778656126481 L 619.766355140187 118.51778656126481 L 619.766355140187 175.9090909090909 L 584.7196261682245 175.9090909090909 L 584.7196261682245 118.51778656126481 Z" stroke-linejoin="bevel" stroke-miterlimit="10"/><rect fill="#abdda4" stroke="none" x="654.8130841121497" y="77.01581027667983" width="35.046728971962466" height="98.89328063241108"/><path fill="none" stroke="white" paint-order="fill stroke markers" d=" M 654.8130841121497 77.01581027667983 L 689.8598130841121 77.01581027667983 L 689.8598130841121 175.9090909090909 L 654.8130841121497 175.9090909090909 L 654.8130841121497 77.01581027667983 Z" stroke-linejoin="bevel" stroke-miterlimit="10"/><rect fill="#abdda4" stroke="none" x="619.766355140187" y="96.93675889328064" width="35.046728971962466" height="78.97233201581027"/><path fill="none" stroke="white" paint-order="fill stroke markers" d=" M 619.766355140187 96.93675889328064 L 654.8130841121495 96.93675889328064 L 654.8130841121495 175.9090909090909 L 619.766355140187 175.9090909090909 L 619.766355140187 96.93675889328064 Z" stroke-linejoin="bevel" stroke-miterlimit="10"/><rect fill="#abdda4" stroke="none" x="759.9532710280374" y="34.09090909090909" width="35.04672897196269" height="141.8181818181818"/><path fill="none" stroke="white" paint-order="fill stroke markers" d=" M 759.9532710280374 34.09090909090909 L 795.0000000000001 34.09090909090909 L 795.0000000000001 175.9090909090909 L 759.9532710280374 175.9090909090909 L 759.9532710280374 34.09090909090909 Z" stroke-linejoin="bevel" stroke-miterlimit="10"/><rect fill="#abdda4" stroke="none" x="549.6728971962618" y="118.75494071146244" width="35.046728971962466" height="57.15415019762847"/><path fill="none" stroke="white" paint-order="fill stroke markers" d=" M 549.6728971962618 118.75494071146244 L 584.7196261682243 118.75494071146244 L 584.7196261682243 175.9090909090909 L 549.6728971962618 175.9090909090909 L 549.6728971962618 118.75494071146244 Z" stroke-linejoin="bevel" stroke-miterlimit="10"/><rect fill="#2b83ba" stroke="none" x="255.28037383177576" y="170.92885375494072" width="35.04672897196258" height="4.980237154150188"/><path fill="none" stroke="white" paint-order="fill stroke markers" d=" M 255.28037383177576 170.92885375494072 L 290.32710280373834 170.92885375494072 L 290.32710280373834 175.9090909090909 L 255.28037383177576 175.9090909090909 L 255.28037383177576 170.92885375494072 Z" stroke-linejoin="bevel" stroke-miterlimit="10"/><rect fill="#2b83ba" stroke="none" x="325.373831775701" y="169.9802371541502" width="35.04672897196258" height="5.928853754940718"/><path fill="none" stroke="white" paint-order="fill stroke markers" d=" M 325.373831775701 169.9802371541502 L 360.42056074766356 169.9802371541502 L 360.42056074766356 175.9090909090909 L 325.373831775701 175.9090909090909 L 325.373831775701 169.9802371541502 Z" stroke-linejoin="bevel" stroke-miterlimit="10"/><rect fill="#2b83ba" stroke="none" x="80.04672897196261" y="174.9604743083004" width="35.04672897196264" height="0.9486166007905013"/><path fill="none" stroke="white" paint-order="fill stroke markers" d=" M 80.04672897196261 174.9604743083004 L 115.09345794392524 174.9604743083004 L 115.09345794392524 175.9090909090909 L 80.04672897196261 175.9090909090909 L 80.04672897196261 174.9604743083004 Z" stroke-linejoin="bevel" stroke-miterlimit="10"/><rect fill="#2b83ba" stroke="none" x="290.3271028037384" y="170.45454545454544" width="35.04672897196258" height="5.4545454545454675"/><path fill="none" stroke="white" paint-order="fill stroke markers" d=" M 290.3271028037384 170.45454545454544 L 325.373831775701 170.45454545454544 L 325.373831775701 175.9090909090909 L 290.3271028037384 175.9090909090909 L 290.3271028037384 170.45454545454544 Z" stroke-linejoin="bevel" stroke-miterlimit="10"/><rect fill="#2b83ba" stroke="none" x="360.42056074766356" y="169.9802371541502" width="35.04672897196269" height="5.928853754940718"/><path fill="none" stroke="white" paint-order="fill stroke markers" d=" M 360.42056074766356 169.9802371541502 L 395.46728971962625 169.9802371541502 L 395.46728971962625 175.9090909090909 L 360.42056074766356 175.9090909090909 L 360.42056074766356 169.9802371541502 Z" stroke-linejoin="bevel" stroke-miterlimit="10"/><rect fill="#2b83ba" stroke="none" x="185.1869158878505" y="172.5889328063241" width="35.04672897196264" height="3.3201581027668112"/><path fill="none" stroke="white" paint-order="fill stroke markers" d=" M 185.1869158878505 172.5889328063241 L 220.23364485981313 172.5889328063241 L 220.23364485981313 175.9090909090909 L 185.1869158878505 175.9090909090909 L 185.1869158878505 172.5889328063241 Z" stroke-linejoin="bevel" stroke-miterlimit="10"/><rect fill="#2b83ba" stroke="none" x="220.23364485981313" y="172.35177865612647" width="35.04672897196258" height="3.5573122529644365"/><path fill="none" stroke="white" paint-order="fill stroke markers" d=" M 220.23364485981313 172.35177865612647 L 255.2803738317757 172.35177865612647 L 255.2803738317757 175.9090909090909 L 220.23364485981313 175.9090909090909 L 220.23364485981313 172.35177865612647 Z" stroke-linejoin="bevel" stroke-miterlimit="10"/><rect fill="#2b83ba" stroke="none" x="115.09345794392526" y="174.01185770750988" width="35.046728971962594" height="1.897233201581031"/><path fill="none" stroke="white" paint-order="fill stroke markers" d=" M 115.09345794392526 174.01185770750988 L 150.14018691588785 174.01185770750988 L 150.14018691588785 175.9090909090909 L 115.09345794392526 175.9090909090909 L 115.09345794392526 174.01185770750988 Z" stroke-linejoin="bevel" stroke-miterlimit="10"/><rect fill="#2b83ba" stroke="none" x="45" y="174.9604743083004" width="35.04672897196262" height="0.9486166007905013"/><path fill="none" stroke="white" paint-order="fill stroke markers" d=" M 45 174.9604743083004 L 80.04672897196262 174.9604743083004 L 80.04672897196262 175.9090909090909 L 45 175.9090909090909 L 45 174.9604743083004 Z" stroke-linejoin="bevel" stroke-miterlimit="10"/><rect fill="#2b83ba" stroke="none" x="150.14018691588785" y="172.5889328063241" width="35.04672897196264" height="3.3201581027668112"/><path fill="none" stroke="white" paint-order="fill stroke markers" d=" M 150.14018691588785 172.5889328063241 L 185.1869158878505 172.5889328063241 L 185.1869158878505 175.9090909090909 L 150.14018691588785 175.9090909090909 L 150.14018691588785 172.5889328063241 Z" stroke-linejoin="bevel" stroke-miterlimit="10"/></g></g></g><g clip-path="url(#uweFkJCSdPre)"><g/></g><g><g fill="#444444" stroke="lightgrey" stroke-linejoin="bevel" stroke-miterlimit="10" stroke-width="2"><path fill="none" stroke="black" paint-order="fill stroke markers" d=" M 45 183 L 795 183" stroke-linejoin="bevel" stroke-miterlimit="10"/><path fill="none" stroke="black" paint-order="fill stroke markers" d=" M 63 189 L 63 181" stroke-linejoin="bevel" stroke-miterlimit="10"/><path fill="none" stroke="black" paint-order="fill stroke markers" d=" M 98 189 L 98 181" stroke-linejoin="bevel" stroke-miterlimit="10"/><path fill="none" stroke="black" paint-order="fill stroke markers" d=" M 133 189 L 133 181" stroke-linejoin="bevel" stroke-miterlimit="10"/><path fill="none" stroke="black" paint-order="fill stroke markers" d=" M 168 189 L 168 181" stroke-linejoin="bevel" stroke-miterlimit="10"/><path fill="none" stroke="black" paint-order="fill stroke markers" d=" M 203 189 L 203 181" stroke-linejoin="bevel" stroke-miterlimit="10"/><path fill="none" stroke="black" paint-order="fill stroke markers" d=" M 238 189 L 238 181" stroke-linejoin="bevel" stroke-miterlimit="10"/><path fill="none" stroke="black" paint-order="fill stroke markers" d=" M 273 189 L 273 181" stroke-linejoin="bevel" stroke-miterlimit="10"/><path fill="none" stroke="black" paint-order="fill stroke markers" d=" M 308 189 L 308 181" stroke-linejoin="bevel" stroke-miterlimit="10"/><path fill="none" stroke="black" paint-order="fill stroke markers" d=" M 343 189 L 343 181" stroke-linejoin="bevel" stroke-miterlimit="10"/><path fill="none" stroke="black" paint-order="fill stroke markers" d=" M 378 189 L 378 181" stroke-linejoin="bevel" stroke-miterlimit="10"/><path fill="none" stroke="black" paint-order="fill stroke markers" d=" M 462 189 L 462 181" stroke-linejoin="bevel" stroke-miterlimit="10"/><path fill="none" stroke="black" paint-order="fill stroke markers" d=" M 497 189 L 497 181" stroke-linejoin="bevel" stroke-miterlimit="10"/><path fill="none" stroke="black" paint-order="fill stroke markers" d=" M 532 189 L 532 181" stroke-linejoin="bevel" stroke-miterlimit="10"/><path fill="none" stroke="black" paint-order="fill stroke markers" d=" M 567 189 L 567 181" stroke-linejoin="bevel" stroke-miterlimit="10"/><path fill="none" stroke="black" paint-order="fill stroke markers" d=" M 602 189 L 602 181" stroke-linejoin="bevel" stroke-miterlimit="10"/><path fill="none" stroke="black" paint-order="fill stroke markers" d=" M 637 189 L 637 181" stroke-linejoin="bevel" stroke-miterlimit="10"/><path fill="none" stroke="black" paint-order="fill stroke markers" d=" M 672 189 L 672 181" stroke-linejoin="bevel" stroke-miterlimit="10"/><path fill="none" stroke="black" paint-order="fill stroke markers" d=" M 707 189 L 707 181" stroke-linejoin="bevel" stroke-miterlimit="10"/><path fill="none" stroke="black" paint-order="fill stroke markers" d=" M 742 189 L 742 181" stroke-linejoin="bevel" stroke-miterlimit="10"/><path fill="" stroke="" paint-order="fill stroke markers" d=" M 777 189 L 777 181" stroke-linejoin="bevel" stroke-miterlimit="10"/><g transform="translate(63,194) rotate(-68.75493541569878,0,0)"><text fill="" stroke="none" font-family="helvetica" font-size="8pt" font-style="normal" font-weight="normal" text-decoration="normal" x="0" y="0" text-anchor="end" dominant-baseline="central">Lincoln</text><g transform="rotate(68.75493541569878,0,0) translate(-63,-194) translate(98,194) rotate(-68.75493541569878,0,0)"><text fill="" stroke="none" font-family="helvetica" font-size="8pt" font-style="normal" font-weight="normal" text-decoration="normal" x="0" y="0" text-anchor="end" dominant-baseline="central">Chandler</text><g transform="rotate(68.75493541569878,0,0) translate(-98,-194) translate(133,194) rotate(-68.75493541569878,0,0)"><text fill="" stroke="none" font-family="helvetica" font-size="8pt" font-style="normal" font-weight="normal" text-decoration="normal" x="0" y="0" text-anchor="end" dominant-baseline="central">Irvine</text><g transform="rotate(68.75493541569878,0,0) translate(-133,-194) translate(168,194) rotate(-68.75493541569878,0,0)"><text fill="" stroke="none" font-family="helvetica" font-size="8pt" font-style="normal" font-weight="normal" text-decoration="normal" x="0" y="0" text-anchor="end" dominant-baseline="central">Plano</text><g transform="rotate(68.75493541569878,0,0) translate(-168,-194) translate(203,194) rotate(-68.75493541569878,0,0)"><text fill="" stroke="none" font-family="helvetica" font-size="8pt" font-style="normal" font-weight="normal" text-decoration="normal" x="0" y="0" text-anchor="end" dominant-baseline="central">Henderson</text><g transform="rotate(68.75493541569878,0,0) translate(-203,-194) translate(238,194) rotate(-68.75493541569878,0,0)"><text fill="" stroke="none" font-family="helvetica" font-size="8pt" font-style="normal" font-weight="normal" text-decoration="normal" x="0" y="0" text-anchor="end" dominant-baseline="central">Honolulu</text><g transform="rotate(68.75493541569878,0,0) translate(-238,-194) translate(273,194) rotate(-68.75493541569878,0,0)"><text fill="" stroke="none" font-family="helvetica" font-size="8pt" font-style="normal" font-weight="normal" text-decoration="normal" x="0" y="0" text-anchor="end" dominant-baseline="central">Arlington</text><g transform="rotate(68.75493541569878,0,0) translate(-273,-194) translate(308,194) rotate(-68.75493541569878,0,0)"><text fill="" stroke="none" font-family="helvetica" font-size="8pt" font-style="normal" font-weight="normal" text-decoration="normal" x="0" y="0" text-anchor="end" dominant-baseline="central">Chula Vista</text><g transform="rotate(68.75493541569878,0,0) translate(-308,-194) translate(343,194) rotate(-68.75493541569878,0,0)"><text fill="" stroke="none" font-family="helvetica" font-size="8pt" font-style="normal" font-weight="normal" text-decoration="normal" x="0" y="0" text-anchor="end" dominant-baseline="central">Austin</text><g transform="rotate(68.75493541569878,0,0) translate(-343,-194) translate(378,194) rotate(-68.75493541569878,0,0)"><text fill="" stroke="none" font-family="helvetica" font-size="8pt" font-style="normal" font-weight="normal" text-decoration="normal" x="0" y="0" text-anchor="end" dominant-baseline="central">El Paso</text><g transform="rotate(68.75493541569878,0,0) translate(-378,-194) translate(462,194) rotate(-68.75493541569878,0,0)"><text fill="" stroke="none" font-family="helvetica" font-size="8pt" font-style="normal" font-weight="normal" text-decoration="normal" x="0" y="0" text-anchor="end" dominant-baseline="central">Cincinnati</text><g transform="rotate(68.75493541569878,0,0) translate(-462,-194) translate(497,194) rotate(-68.75493541569878,0,0)"><text fill="" stroke="none" font-family="helvetica" font-size="8pt" font-style="normal" font-weight="normal" text-decoration="normal" x="0" y="0" text-anchor="end" dominant-baseline="central">Kansas City</text><g transform="rotate(68.75493541569878,0,0) translate(-497,-194) translate(532,194) rotate(-68.75493541569878,0,0)"><text fill="" stroke="none" font-family="helvetica" font-size="8pt" font-style="normal" font-weight="normal" text-decoration="normal" x="0" y="0" text-anchor="end" dominant-baseline="central">Chicago</text><g transform="rotate(68.75493541569878,0,0) translate(-532,-194) translate(567,194) rotate(-68.75493541569878,0,0)"><text fill="" stroke="none" font-family="helvetica" font-size="8pt" font-style="normal" font-weight="normal" text-decoration="normal" x="0" y="0" text-anchor="end" dominant-baseline="central">Washington</text><g transform="rotate(68.75493541569878,0,0) translate(-567,-194) translate(602,194) rotate(-68.75493541569878,0,0)"><text fill="" stroke="none" font-family="helvetica" font-size="8pt" font-style="normal" font-weight="normal" text-decoration="normal" x="0" y="0" text-anchor="end" dominant-baseline="central">Milwaukee</text><g transform="rotate(68.75493541569878,0,0) translate(-602,-194) translate(637,194) rotate(-68.75493541569878,0,0)"><text fill="" stroke="none" font-family="helvetica" font-size="8pt" font-style="normal" font-weight="normal" text-decoration="normal" x="0" y="0" text-anchor="end" dominant-baseline="central">Newark*</text><g transform="rotate(68.75493541569878,0,0) translate(-637,-194) translate(672,194) rotate(-68.75493541569878,0,0)"><text fill="" stroke="none" font-family="helvetica" font-size="8pt" font-style="normal" font-weight="normal" text-decoration="normal" x="0" y="0" text-anchor="end" dominant-baseline="central">New Orleans</text><g transform="rotate(68.75493541569878,0,0) translate(-672,-194) translate(707,194) rotate(-68.75493541569878,0,0)"><text fill="" stroke="none" font-family="helvetica" font-size="8pt" font-style="normal" font-weight="normal" text-decoration="normal" x="0" y="0" text-anchor="end" dominant-baseline="central">Detroit</text><g transform="rotate(68.75493541569878,0,0) translate(-707,-194) translate(742,194) rotate(-68.75493541569878,0,0)"><text fill="" stroke="none" font-family="helvetica" font-size="8pt" font-style="normal" font-weight="normal" text-decoration="normal" x="0" y="0" text-anchor="end" dominant-baseline="central">Baltimore</text><g transform="rotate(68.75493541569878,0,0) translate(-742,-194) translate(777,194) rotate(-68.75493541569878,0,0)"><text fill="" stroke="none" font-family="helvetica" font-size="8pt" font-style="normal" font-weight="normal" text-decoration="normal" x="0" y="0" text-anchor="end" dominant-baseline="central">St. Louis</text><g transform="rotate(68.75493541569878,0,0) translate(-777,-194) translate(220,266) rotate(0,0,0)"><text fill="" stroke="none" font-family="helvetica" font-size="8pt" font-style="normal" font-weight="bold" text-decoration="normal" x="0" y="0" text-anchor="middle" dominant-baseline="hanging">low</text><g transform="rotate(0,0,0) translate(-220,-266) translate(620,266) rotate(0,0,0)"><text fill="" stroke="none" font-family="helvetica" font-size="8pt" font-style="normal" font-weight="bold" text-decoration="normal" x="0" y="0" text-anchor="middle" dominant-baseline="hanging">high</text><g transform="rotate(0,0,0) translate(-620,-266) translate(420,285) rotate(0,0,0)"><text fill="" stroke="none" font-family="helvetica" font-size="10pt" font-style="italic" font-weight="normal" text-decoration="normal" x="0" y="0" text-anchor="middle" dominant-baseline="hanging">Cities</text><g transform="rotate(0,0,0) translate(-420,-285)"><path fill="none" stroke="" paint-order="fill stroke markers" d=" M 420 268 L 420 186"/></g></g></g></g></g></g></g></g></g></g></g></g></g></g></g></g></g></g></g></g></g></g></g></g></g><g fill="#444444"><path fill="none" stroke="black" paint-order="fill stroke markers" d=" M 45 183 L 45 27" stroke-linejoin="bevel" stroke-miterlimit="10"/><path fill="none" stroke="black" paint-order="fill stroke markers" d=" M 39 176 L 47 176" stroke-linejoin="bevel" stroke-miterlimit="10"/><path fill="none" stroke="black" paint-order="fill stroke markers" d=" M 39 152 L 47 152" stroke-linejoin="bevel" stroke-miterlimit="10"/><path fill="none" stroke="black" paint-order="fill stroke markers" d=" M 39 128 L 47 128" stroke-linejoin="bevel" stroke-miterlimit="10"/><path fill="none" stroke="black" paint-order="fill stroke markers" d=" M 39 105 L 47 105" stroke-linejoin="bevel" stroke-miterlimit="10"/><path fill="none" stroke="black" paint-order="fill stroke markers" d=" M 39 81 L 47 81" stroke-linejoin="bevel" stroke-miterlimit="10"/><path fill="none" stroke="black" paint-order="fill stroke markers" d=" M 39 57 L 47 57" stroke-linejoin="bevel" stroke-miterlimit="10"/><path fill="none" stroke="black" paint-order="fill stroke markers" d=" M 39 34 L 47 34" stroke-linejoin="bevel" stroke-miterlimit="10"/><path fill="none" stroke="black" paint-order="fill stroke markers" d=" M 41 181 L 45 181" stroke-linejoin="bevel" stroke-miterlimit="10"/><path fill="none" stroke="black" paint-order="fill stroke markers" d=" M 41 176 L 45 176" stroke-linejoin="bevel" stroke-miterlimit="10"/><path fill="none" stroke="black" paint-order="fill stroke markers" d=" M 41 171 L 45 171" stroke-linejoin="bevel" stroke-miterlimit="10"/><path fill="none" stroke="black" paint-order="fill stroke markers" d=" M 41 166 L 45 166" stroke-linejoin="bevel" stroke-miterlimit="10"/><path fill="none" stroke="black" paint-order="fill stroke markers" d=" M 41 162 L 45 162" stroke-linejoin="bevel" stroke-miterlimit="10"/><path fill="none" stroke="black" paint-order="fill stroke markers" d=" M 41 157 L 45 157" stroke-linejoin="bevel" stroke-miterlimit="10"/><path fill="none" stroke="black" paint-order="fill stroke markers" d=" M 41 152 L 45 152" stroke-linejoin="bevel" stroke-miterlimit="10"/><path fill="none" stroke="black" paint-order="fill stroke markers" d=" M 41 147 L 45 147" stroke-linejoin="bevel" stroke-miterlimit="10"/><path fill="none" stroke="black" paint-order="fill stroke markers" d=" M 41 143 L 45 143" stroke-linejoin="bevel" stroke-miterlimit="10"/><path fill="none" stroke="black" paint-order="fill stroke markers" d=" M 41 138 L 45 138" stroke-linejoin="bevel" stroke-miterlimit="10"/><path fill="none" stroke="black" paint-order="fill stroke markers" d=" M 41 133 L 45 133" stroke-linejoin="bevel" stroke-miterlimit="10"/><path fill="none" stroke="black" paint-order="fill stroke markers" d=" M 41 128 L 45 128" stroke-linejoin="bevel" stroke-miterlimit="10"/><path fill="none" stroke="black" paint-order="fill stroke markers" d=" M 41 124 L 45 124" stroke-linejoin="bevel" stroke-miterlimit="10"/><path fill="none" stroke="black" paint-order="fill stroke markers" d=" M 41 119 L 45 119" stroke-linejoin="bevel" stroke-miterlimit="10"/><path fill="none" stroke="black" paint-order="fill stroke markers" d=" M 41 114 L 45 114" stroke-linejoin="bevel" stroke-miterlimit="10"/><path fill="none" stroke="black" paint-order="fill stroke markers" d=" M 41 110 L 45 110" stroke-linejoin="bevel" stroke-miterlimit="10"/><path fill="none" stroke="black" paint-order="fill stroke markers" d=" M 41 105 L 45 105" stroke-linejoin="bevel" stroke-miterlimit="10"/><path fill="none" stroke="black" paint-order="fill stroke markers" d=" M 41 100 L 45 100" stroke-linejoin="bevel" stroke-miterlimit="10"/><path fill="none" stroke="black" paint-order="fill stroke markers" d=" M 41 95 L 45 95" stroke-linejoin="bevel" stroke-miterlimit="10"/><path fill="none" stroke="black" paint-order="fill stroke markers" d=" M 41 91 L 45 91" stroke-linejoin="bevel" stroke-miterlimit="10"/><path fill="none" stroke="black" paint-order="fill stroke markers" d=" M 41 86 L 45 86" stroke-linejoin="bevel" stroke-miterlimit="10"/><path fill="none" stroke="black" paint-order="fill stroke markers" d=" M 41 81 L 45 81" stroke-linejoin="bevel" stroke-miterlimit="10"/><path fill="none" stroke="black" paint-order="fill stroke markers" d=" M 41 76 L 45 76" stroke-linejoin="bevel" stroke-miterlimit="10"/><path fill="none" stroke="black" paint-order="fill stroke markers" d=" M 41 72 L 45 72" stroke-linejoin="bevel" stroke-miterlimit="10"/><path fill="none" stroke="black" paint-order="fill stroke markers" d=" M 41 67 L 45 67" stroke-linejoin="bevel" stroke-miterlimit="10"/><path fill="none" stroke="black" paint-order="fill stroke markers" d=" M 41 62 L 45 62" stroke-linejoin="bevel" stroke-miterlimit="10"/><path fill="none" stroke="black" paint-order="fill stroke markers" d=" M 41 57 L 45 57" stroke-linejoin="bevel" stroke-miterlimit="10"/><path fill="none" stroke="black" paint-order="fill stroke markers" d=" M 41 53 L 45 53" stroke-linejoin="bevel" stroke-miterlimit="10"/><path fill="none" stroke="black" paint-order="fill stroke markers" d=" M 41 48 L 45 48" stroke-linejoin="bevel" stroke-miterlimit="10"/><path fill="none" stroke="black" paint-order="fill stroke markers" d=" M 41 43 L 45 43" stroke-linejoin="bevel" stroke-miterlimit="10"/><path fill="none" stroke="black" paint-order="fill stroke markers" d=" M 41 38 L 45 38" stroke-linejoin="bevel" stroke-miterlimit="10"/><path fill="none" stroke="black" paint-order="fill stroke markers" d=" M 41 34 L 45 34" stroke-linejoin="bevel" stroke-miterlimit="10"/><path fill="" stroke="black" paint-order="fill stroke markers" d=" M 41 29 L 45 29" stroke-linejoin="bevel" stroke-miterlimit="10"/><g transform="translate(34,176) rotate(0,0,0)"><text fill="" stroke="none" font-family="helvetica" font-size="8pt" font-style="normal" font-weight="normal" text-decoration="normal" x="0" y="0" text-anchor="end" dominant-baseline="central">0</text><g transform="rotate(0,0,0) translate(-34,-176) translate(34,152) rotate(0,0,0)"><text fill="" stroke="none" font-family="helvetica" font-size="8pt" font-style="normal" font-weight="normal" text-decoration="normal" x="0" y="0" text-anchor="end" dominant-baseline="central">10</text><g transform="rotate(0,0,0) translate(-34,-152) translate(34,128) rotate(0,0,0)"><text fill="" stroke="none" font-family="helvetica" font-size="8pt" font-style="normal" font-weight="normal" text-decoration="normal" x="0" y="0" text-anchor="end" dominant-baseline="central">20</text><g transform="rotate(0,0,0) translate(-34,-128) translate(34,105) rotate(0,0,0)"><text fill="" stroke="none" font-family="helvetica" font-size="8pt" font-style="normal" font-weight="normal" text-decoration="normal" x="0" y="0" text-anchor="end" dominant-baseline="central">30</text><g transform="rotate(0,0,0) translate(-34,-105) translate(34,81) rotate(0,0,0)"><text fill="" stroke="none" font-family="helvetica" font-size="8pt" font-style="normal" font-weight="normal" text-decoration="normal" x="0" y="0" text-anchor="end" dominant-baseline="central">40</text><g transform="rotate(0,0,0) translate(-34,-81) translate(34,57) rotate(0,0,0)"><text fill="" stroke="none" font-family="helvetica" font-size="8pt" font-style="normal" font-weight="normal" text-decoration="normal" x="0" y="0" text-anchor="end" dominant-baseline="central">50</text><g transform="rotate(0,0,0) translate(-34,-57) translate(34,34) rotate(0,0,0)"><text fill="" stroke="none" font-family="helvetica" font-size="8pt" font-style="normal" font-weight="normal" text-decoration="normal" x="0" y="0" text-anchor="end" dominant-baseline="central">60</text><g transform="rotate(0,0,0) translate(-34,-34) translate(16,105) rotate(-90,0,0)"><text fill="" stroke="none" font-family="helvetica" font-size="10pt" font-style="italic" font-weight="normal" text-decoration="normal" x="0" y="0" text-anchor="middle" dominant-baseline="alphabetic">Murder</text><g transform="rotate(90,0,0) translate(-16,-105)"/></g></g></g></g></g></g></g></g></g><g fill="#444444"><path fill="" stroke="none" d=""/><g transform="translate(45,22)"><path fill="none" stroke="none"/><text fill="" stroke="none" font-family="helvetica" font-size="10pt" font-style="normal" font-weight="bold" text-decoration="normal" x="0" y="0" text-anchor="start" dominant-baseline="text-after-edge">Murder in US cities per 100,000 people in 2009</text></g></g></g></g></g></svg>